<svg width="960" height="280" viewBox="0 0 960 280" fill="none" xmlns="http://www.w3.org/2000/svg" role="img" aria-labelledby="title desc">
<title id="title">BehavLog logo</title>
<desc id="desc">BehavLog wordmark with a scientific annotation inspired icon.</desc>
<rect width="960" height="280" rx="36" fill="#020617"/>
<rect x="36" y="36" width="208" height="208" rx="48" fill="#111827"/>
<path d="M96 72H152C206.124 72 250 115.876 250 170C250 224.124 206.124 268 152 268H120V316H96V72Z" transform="translate(0 -24)" fill="#14B8A6"/>
<path d="M150 114V226H187C214.614 226 237 203.614 237 176C237 148.386 214.614 126 187 126H150V114Z" fill="#CCFBF1"/>
<circle cx="76" cy="72" r="8" fill="#38BDF8" fill-opacity="0.9"/>
<circle cx="208" cy="72" r="8" fill="#38BDF8" fill-opacity="0.9"/>
<circle cx="76" cy="208" r="8" fill="#38BDF8" fill-opacity="0.9"/>
<path d="M76 72L36 36" stroke="#38BDF8" stroke-width="4" stroke-linecap="round" opacity="0.75"/>
<path d="M208 72L244 36" stroke="#38BDF8" stroke-width="4" stroke-linecap="round" opacity="0.75"/>
<path d="M76 208L36 244" stroke="#38BDF8" stroke-width="4" stroke-linecap="round" opacity="0.75"/>
<path d="M316 110H603.968" stroke="url(#paint0_linear_1_2)" stroke-width="4" stroke-linecap="round"/>
<circle cx="316" cy="110" r="9" fill="#14B8A6"/>
<circle cx="412" cy="110" r="9" fill="#2DD4BF"/>
<circle cx="508" cy="110" r="9" fill="#67E8F9"/>
<circle cx="604" cy="110" r="9" fill="#A78BFA"/>
<text x="316" y="162" fill="#F8FAFC" font-family="ui-sans-serif, system-ui, -apple-system, BlinkMacSystemFont, 'Segoe UI', sans-serif" font-size="78" font-weight="700" letter-spacing="-0.04em">BehavLog</text>
<text x="319" y="203" fill="#94A3B8" font-family="ui-sans-serif, system-ui, -apple-system, BlinkMacSystemFont, 'Segoe UI', sans-serif" font-size="24" font-weight="500">Scientific behavior and keypoint annotation for video-based research</text>
<defs>
<linearGradient id="paint0_linear_1_2" x1="316" y1="110" x2="603.968" y2="110" gradientUnits="userSpaceOnUse">
<stop stop-color="#14B8A6"/>
<stop offset="0.5" stop-color="#38BDF8"/>
<stop offset="1" stop-color="#A78BFA"/>
</linearGradient>
</defs>
</svg>
